<svg width="29" height="29" viewBox="0 0 29 29" fill="none" xmlns="http://www.w3.org/2000/svg">
<g clip-path="url(#clip0_12_713)">
<rect width="29" height="29" fill="#FFDD55"/>
<g filter="url(#filter0_d_12_713)">
<path d="M6.04167 26.5833C5.03473 26.5833 4.17882 26.2309 3.47396 25.526C2.7691 24.8211 2.41667 23.9652 2.41667 22.9583C2.41667 22.1729 2.64344 21.4733 3.09696 20.8594C3.55049 20.2456 4.12928 19.807 4.83334 19.5435V9.45396C4.12848 9.19296 3.54969 8.75514 3.09696 8.1405C2.64424 7.52586 2.41748 6.82624 2.41667 6.04163C2.41667 5.03468 2.7691 4.17878 3.47396 3.47392C4.17882 2.76906 5.03473 2.41663 6.04167 2.41663C6.82709 2.41663 7.52712 2.64339 8.14176 3.09692C8.75639 3.55045 9.19421 4.12924 9.45521 4.83329H19.5448C19.7865 4.12843 20.2146 3.54964 20.8293 3.09692C21.4439 2.6442 22.1536 2.41743 22.9583 2.41663C23.9653 2.41663 24.8212 2.76906 25.526 3.47392C26.2309 4.17878 26.5833 5.03468 26.5833 6.04163C26.5833 6.84718 26.357 7.55728 25.9043 8.17192C25.4515 8.78656 24.8723 9.21431 24.1667 9.45517V19.5448C24.8715 19.8066 25.4507 20.2448 25.9043 20.8594C26.3578 21.4741 26.5841 22.1737 26.5833 22.9583C26.5833 23.9652 26.2309 24.8211 25.526 25.526C24.8212 26.2309 23.9653 26.5833 22.9583 26.5833C22.1729 26.5833 21.4733 26.3569 20.8595 25.9042C20.2456 25.4515 19.807 24.8723 19.5436 24.1666H9.45401C9.1922 24.8715 8.75398 25.4507 8.13934 25.9042C7.5247 26.3577 6.82548 26.5841 6.04167 26.5833ZM6.04167 7.24996C6.38403 7.24996 6.67121 7.13396 6.90321 6.90196C7.13521 6.66996 7.25081 6.38318 7.25001 6.04163C7.2492 5.70007 7.1332 5.41329 6.90201 5.18129C6.67081 4.94929 6.38403 4.83329 6.04167 4.83329C5.69931 4.83329 5.41253 4.94929 5.18134 5.18129C4.95014 5.41329 4.83414 5.70007 4.83334 6.04163C4.83253 6.38318 4.94853 6.67036 5.18134 6.90317C5.41414 7.13597 5.70092 7.25157 6.04167 7.24996ZM22.9583 7.24996C23.3007 7.24996 23.5879 7.13396 23.8199 6.90196C24.0519 6.66996 24.1675 6.38318 24.1667 6.04163C24.1659 5.70007 24.0499 5.41329 23.8187 5.18129C23.5875 4.94929 23.3007 4.83329 22.9583 4.83329C22.616 4.83329 22.3292 4.94929 22.098 5.18129C21.8668 5.41329 21.7508 5.70007 21.75 6.04163C21.7492 6.38318 21.8652 6.67036 22.098 6.90317C22.3308 7.13597 22.6176 7.25157 22.9583 7.24996ZM9.45521 21.75H19.5448C19.726 21.2263 20.008 20.7732 20.3906 20.3906C20.7733 20.0079 21.2264 19.726 21.75 19.5448V9.45517C21.2264 9.27392 20.7733 8.99197 20.3906 8.60933C20.008 8.2267 19.726 7.77357 19.5448 7.24996H9.45521C9.27396 7.77357 8.99202 8.2267 8.60938 8.60933C8.22674 8.99197 7.77362 9.27392 7.25001 9.45517V19.5448C7.77362 19.726 8.22674 20.0079 8.60938 20.3906C8.99202 20.7732 9.27396 21.2263 9.45521 21.75ZM22.9583 24.1666C23.3007 24.1666 23.5879 24.0506 23.8199 23.8186C24.0519 23.5866 24.1675 23.2998 24.1667 22.9583C24.1659 22.6167 24.0499 22.33 23.8187 22.098C23.5875 21.866 23.3007 21.75 22.9583 21.75C22.616 21.75 22.3292 21.866 22.098 22.098C21.8668 22.33 21.7508 22.6167 21.75 22.9583C21.7492 23.2998 21.8652 23.587 22.098 23.8198C22.3308 24.0526 22.6176 24.1682 22.9583 24.1666ZM6.04167 24.1666C6.38403 24.1666 6.67121 24.0506 6.90321 23.8186C7.13521 23.5866 7.25081 23.2998 7.25001 22.9583C7.2492 22.6167 7.1332 22.33 6.90201 22.098C6.67081 21.866 6.38403 21.75 6.04167 21.75C5.69931 21.75 5.41253 21.866 5.18134 22.098C4.95014 22.33 4.83414 22.6167 4.83334 22.9583C4.83253 23.2998 4.94853 23.587 5.18134 23.8198C5.41414 24.0526 5.70092 24.1682 6.04167 24.1666Z" fill="#282C35"/>
</g>
</g>
<defs>
<filter id="filter0_d_12_713" x="-1.58333" y="2.41663" width="32.1667" height="32.1666" filterUnits="userSpaceOnUse" color-interpolation-filters="sRGB">
<feFlood flood-opacity="0" result="BackgroundImageFix"/>
<feColorMatrix in="SourceAlpha" type="matrix" values="0 0 0 0 0 0 0 0 0 0 0 0 0 0 0 0 0 0 127 0" result="hardAlpha"/>
<feOffset dy="4"/>
<feGaussianBlur stdDeviation="2"/>
<feComposite in2="hardAlpha" operator="out"/>
<feColorMatrix type="matrix" values="0 0 0 0 0 0 0 0 0 0 0 0 0 0 0 0 0 0 0.25 0"/>
<feBlend mode="normal" in2="BackgroundImageFix" result="effect1_dropShadow_12_713"/>
<feBlend mode="normal" in="SourceGraphic" in2="effect1_dropShadow_12_713" result="shape"/>
</filter>
<clipPath id="clip0_12_713">
<rect width="29" height="29" fill="white"/>
</clipPath>
</defs>
</svg>
