<svg width="32" height="33" viewBox="0 0 32 33" fill="none" xmlns="http://www.w3.org/2000/svg">
<path d="M28.2334 18.1156C28.302 17.6 28.3362 17.0672 28.3362 16.5C28.3362 15.95 28.302 15.4 28.2163 14.8844L31.6944 12.1688C31.8443 12.0448 31.9467 11.8726 31.9842 11.6814C32.0217 11.4903 31.992 11.292 31.9 11.1203L28.6104 5.41407C28.5135 5.24144 28.3589 5.10878 28.1739 5.03957C27.9888 4.97036 27.7854 4.96907 27.5995 5.03594L23.5045 6.68594C22.6479 6.03282 21.7398 5.48282 20.7289 5.07032L20.1121 0.704692C20.0817 0.507947 19.9821 0.328642 19.8312 0.199339C19.6803 0.0700357 19.4881 -0.000690086 19.2897 5.07615e-06H12.7103C12.2991 5.07615e-06 11.9736 0.292192 11.9051 0.704692L11.2882 5.07032C10.2774 5.48282 9.35214 6.05 8.51259 6.68594L4.41764 5.03594C4.0407 4.89844 3.61236 5.03594 3.40676 5.41407L0.13423 11.1203C-0.0713736 11.4813 -0.00283917 11.9281 0.339834 12.1688L3.81797 14.8844C3.7323 15.4 3.66376 15.9672 3.66376 16.5C3.66376 17.0328 3.69803 17.6 3.7837 18.1156L0.305567 20.8313C0.155688 20.9552 0.0532799 21.1274 0.0157895 21.3186C-0.0217009 21.5097 0.00804645 21.708 0.099963 21.8797L3.38963 27.5859C3.59523 27.9641 4.02357 28.0844 4.40051 27.9641L8.49546 26.3141C9.35214 26.9672 10.2602 27.5172 11.2711 27.9297L11.8879 32.2953C11.9736 32.7078 12.2991 33 12.7103 33H19.2897C19.7009 33 20.0435 32.7078 20.0949 32.2953L20.7118 27.9297C21.7226 27.5172 22.6479 26.9672 23.4874 26.3141L27.5824 27.9641C27.9593 28.1016 28.3876 27.9641 28.5932 27.5859L31.8829 21.8797C32.0885 21.5016 32.0028 21.0719 31.6773 20.8313L28.2334 18.1156ZM16 22.6875C12.6075 22.6875 9.83188 19.9031 9.83188 16.5C9.83188 13.0969 12.6075 10.3125 16 10.3125C19.3925 10.3125 22.1681 13.0969 22.1681 16.5C22.1681 19.9031 19.3925 22.6875 16 22.6875Z" fill="#FFDD55"/>
</svg>
